solid OpenSCAD_Model
  facet normal 1 0 0
    outer loop
      vertex 25.25 -5 5.2
      vertex 25.25 -15.25 5.2
      vertex 25.25 -5 2
    endloop
  endfacet
  facet normal 1 0 0
    outer loop
      vertex 25.25 5 2
      vertex 25.25 15.25 5.2
      vertex 25.25 5 5.2
    endloop
  endfacet
  facet normal 1 0 0
    outer loop
      vertex 25.25 15.25 5.2
      vertex 25.25 5 2
      vertex 25.25 15.25 -11
    endloop
  endfacet
  facet normal 1 -0 0
    outer loop
      vertex 25.25 -5 2
      vertex 25.25 15.25 -11
      vertex 25.25 5 2
    endloop
  endfacet
  facet normal 1 0 0
    outer loop
      vertex 25.25 -15.25 -11
      vertex 25.25 -5 2
      vertex 25.25 -15.25 5.2
    endloop
  endfacet
  facet normal 1 0 0
    outer loop
      vertex 25.25 -5 2
      vertex 25.25 -15.25 -11
      vertex 25.25 15.25 -11
    endloop
  endfacet
  facet normal -0 0 1
    outer loop
      vertex -24.25 11.25 0
      vertex 24.25 -11.25 0
      vertex 24.25 11.25 0
    endloop
  endfacet
  facet normal 0 0 1
    outer loop
      vertex 24.25 -11.25 0
      vertex -24.25 11.25 0
      vertex -24.25 -11.25 0
    endloop
  endfacet
  facet normal 0 0 -1
    outer loop
      vertex -25.25 -15.25 -11
      vertex 25.25 15.25 -11
      vertex 25.25 -15.25 -11
    endloop
  endfacet
  facet normal -0 0 -1
    outer loop
      vertex 25.25 15.25 -11
      vertex -25.25 -15.25 -11
      vertex -25.25 15.25 -11
    endloop
  endfacet
  facet normal -1 0 0
    outer loop
      vertex -25.25 15.25 -11
      vertex -25.25 9.25 2
      vertex -25.25 15.25 5.2
    endloop
  endfacet
  facet normal -1 0 0
    outer loop
      vertex -25.25 15.25 -11
      vertex -25.25 -9.25 2
      vertex -25.25 9.25 2
    endloop
  endfacet
  facet normal -1 0 0
    outer loop
      vertex -25.25 -15.25 -11
      vertex -25.25 -9.25 2
      vertex -25.25 15.25 -11
    endloop
  endfacet
  facet normal -1 0 0
    outer loop
      vertex -25.25 -15.25 5.2
      vertex -25.25 -9.25 2
      vertex -25.25 -15.25 -11
    endloop
  endfacet
  facet normal -1 0 0
    outer loop
      vertex -25.25 -9.25 2
      vertex -25.25 -15.25 5.2
      vertex -25.25 -9.25 5.2
    endloop
  endfacet
  facet normal -1 -0 0
    outer loop
      vertex -25.25 15.25 5.2
      vertex -25.25 9.25 2
      vertex -25.25 9.25 5.2
    endloop
  endfacet
  facet normal 0 1 -0
    outer loop
      vertex 25.25 15.25 -11
      vertex -25.25 15.25 5.2
      vertex 25.25 15.25 5.2
    endloop
  endfacet
  facet normal 0 1 0
    outer loop
      vertex -25.25 15.25 5.2
      vertex 25.25 15.25 -11
      vertex -25.25 15.25 -11
    endloop
  endfacet
  facet normal 0 -1 0
    outer loop
      vertex -25.25 -15.25 -11
      vertex 25.25 -15.25 5.2
      vertex -25.25 -15.25 5.2
    endloop
  endfacet
  facet normal 0 -1 -0
    outer loop
      vertex 25.25 -15.25 5.2
      vertex -25.25 -15.25 -11
      vertex 25.25 -15.25 -11
    endloop
  endfacet
  facet normal -1 0 0
    outer loop
      vertex 24.25 -11.25 -10
      vertex 24.25 -14.25 -10
      vertex 24.25 -11.25 0
    endloop
  endfacet
  facet normal -1 0 0
    outer loop
      vertex 24.25 11.25 0
      vertex 24.25 -5 2
      vertex 24.25 5 2
    endloop
  endfacet
  facet normal -1 0 0
    outer loop
      vertex 24.25 -11.25 0
      vertex 24.25 -5 2
      vertex 24.25 11.25 0
    endloop
  endfacet
  facet normal -1 0 0
    outer loop
      vertex 24.25 -11.25 0
      vertex 24.25 -5 5.2
      vertex 24.25 -5 2
    endloop
  endfacet
  facet normal -1 0 0
    outer loop
      vertex 24.25 -11.25 0
      vertex 24.25 -14.25 5.2
      vertex 24.25 -5 5.2
    endloop
  endfacet
  facet normal -1 0 0
    outer loop
      vertex 24.25 -14.25 5.2
      vertex 24.25 -11.25 0
      vertex 24.25 -14.25 -10
    endloop
  endfacet
  facet normal -1 0 0
    outer loop
      vertex 24.25 11.25 0
      vertex 24.25 14.25 -10
      vertex 24.25 11.25 -10
    endloop
  endfacet
  facet normal -1 0 0
    outer loop
      vertex 24.25 14.25 -10
      vertex 24.25 11.25 0
      vertex 24.25 14.25 5.2
    endloop
  endfacet
  facet normal -1 0 0
    outer loop
      vertex 24.25 5 5.2
      vertex 24.25 11.25 0
      vertex 24.25 5 2
    endloop
  endfacet
  facet normal -1 0 0
    outer loop
      vertex 24.25 11.25 0
      vertex 24.25 5 5.2
      vertex 24.25 14.25 5.2
    endloop
  endfacet
  facet normal -0 0 1
    outer loop
      vertex -24.25 14.25 -10
      vertex 24.25 11.25 -10
      vertex 24.25 14.25 -10
    endloop
  endfacet
  facet normal 0 0 1
    outer loop
      vertex 24.25 11.25 -10
      vertex -24.25 14.25 -10
      vertex -24.25 11.25 -10
    endloop
  endfacet
  facet normal 1 -0 0
    outer loop
      vertex -24.25 -14.25 5.2
      vertex -24.25 -9.25 2
      vertex -24.25 -9.25 5.2
    endloop
  endfacet
  facet normal 1 0 0
    outer loop
      vertex -24.25 -9.25 2
      vertex -24.25 -14.25 5.2
      vertex -24.25 -11.25 0
    endloop
  endfacet
  facet normal 1 0 0
    outer loop
      vertex -24.25 -14.25 -10
      vertex -24.25 -11.25 0
      vertex -24.25 -14.25 5.2
    endloop
  endfacet
  facet normal 1 0 0
    outer loop
      vertex -24.25 -11.25 0
      vertex -24.25 -14.25 -10
      vertex -24.25 -11.25 -10
    endloop
  endfacet
  facet normal 1 0 0
    outer loop
      vertex -24.25 14.25 5.2
      vertex -24.25 11.25 0
      vertex -24.25 14.25 -10
    endloop
  endfacet
  facet normal 1 0 0
    outer loop
      vertex -24.25 9.25 2
      vertex -24.25 14.25 5.2
      vertex -24.25 9.25 5.2
    endloop
  endfacet
  facet normal 1 0 0
    outer loop
      vertex -24.25 14.25 5.2
      vertex -24.25 9.25 2
      vertex -24.25 11.25 0
    endloop
  endfacet
  facet normal 1 -0 0
    outer loop
      vertex -24.25 -9.25 2
      vertex -24.25 11.25 0
      vertex -24.25 9.25 2
    endloop
  endfacet
  facet normal 1 0 0
    outer loop
      vertex -24.25 11.25 0
      vertex -24.25 -9.25 2
      vertex -24.25 -11.25 0
    endloop
  endfacet
  facet normal 1 0 0
    outer loop
      vertex -24.25 14.25 -10
      vertex -24.25 11.25 0
      vertex -24.25 11.25 -10
    endloop
  endfacet
  facet normal 0 -1 0
    outer loop
      vertex -24.25 14.25 -10
      vertex 24.25 14.25 5.2
      vertex -24.25 14.25 5.2
    endloop
  endfacet
  facet normal 0 -1 -0
    outer loop
      vertex 24.25 14.25 5.2
      vertex -24.25 14.25 -10
      vertex 24.25 14.25 -10
    endloop
  endfacet
  facet normal 0 1 -0
    outer loop
      vertex 24.25 11.25 -10
      vertex -24.25 11.25 0
      vertex 24.25 11.25 0
    endloop
  endfacet
  facet normal 0 1 0
    outer loop
      vertex -24.25 11.25 0
      vertex 24.25 11.25 -10
      vertex -24.25 11.25 -10
    endloop
  endfacet
  facet normal -0 0 1
    outer loop
      vertex -24.25 -11.25 -10
      vertex 24.25 -14.25 -10
      vertex 24.25 -11.25 -10
    endloop
  endfacet
  facet normal 0 0 1
    outer loop
      vertex 24.25 -14.25 -10
      vertex -24.25 -11.25 -10
      vertex -24.25 -14.25 -10
    endloop
  endfacet
  facet normal 0 -1 0
    outer loop
      vertex -24.25 -11.25 -10
      vertex 24.25 -11.25 0
      vertex -24.25 -11.25 0
    endloop
  endfacet
  facet normal 0 -1 -0
    outer loop
      vertex 24.25 -11.25 0
      vertex -24.25 -11.25 -10
      vertex 24.25 -11.25 -10
    endloop
  endfacet
  facet normal 0 1 -0
    outer loop
      vertex 24.25 -14.25 -10
      vertex -24.25 -14.25 5.2
      vertex 24.25 -14.25 5.2
    endloop
  endfacet
  facet normal 0 1 0
    outer loop
      vertex -24.25 -14.25 5.2
      vertex 24.25 -14.25 -10
      vertex -24.25 -14.25 -10
    endloop
  endfacet
  facet normal 0 0 1
    outer loop
      vertex 25.25 15.25 5.2
      vertex 24.25 14.25 5.2
      vertex 25.25 5 5.2
    endloop
  endfacet
  facet normal 0 0 1
    outer loop
      vertex 25.25 15.25 5.2
      vertex -24.25 14.25 5.2
      vertex 24.25 14.25 5.2
    endloop
  endfacet
  facet normal -0 0 1
    outer loop
      vertex -25.25 15.25 5.2
      vertex -24.25 14.25 5.2
      vertex 25.25 15.25 5.2
    endloop
  endfacet
  facet normal 0 0 1
    outer loop
      vertex -25.25 9.25 5.2
      vertex -24.25 14.25 5.2
      vertex -25.25 15.25 5.2
    endloop
  endfacet
  facet normal 0 0 1
    outer loop
      vertex -24.25 14.25 5.2
      vertex -25.25 9.25 5.2
      vertex -24.25 9.25 5.2
    endloop
  endfacet
  facet normal 0 0 1
    outer loop
      vertex 25.25 5 5.2
      vertex 24.25 14.25 5.2
      vertex 24.25 5 5.2
    endloop
  endfacet
  facet normal 0 0 1
    outer loop
      vertex -24.25 -9.25 5.2
      vertex -25.25 -9.25 5.2
      vertex -24.25 -14.25 5.2
    endloop
  endfacet
  facet normal 0 0 1
    outer loop
      vertex 24.25 -14.25 5.2
      vertex 25.25 -5 5.2
      vertex 24.25 -5 5.2
    endloop
  endfacet
  facet normal 0 0 1
    outer loop
      vertex 25.25 -5 5.2
      vertex 24.25 -14.25 5.2
      vertex 25.25 -15.25 5.2
    endloop
  endfacet
  facet normal -0 0 1
    outer loop
      vertex -24.25 -14.25 5.2
      vertex 25.25 -15.25 5.2
      vertex 24.25 -14.25 5.2
    endloop
  endfacet
  facet normal 0 0 1
    outer loop
      vertex -24.25 -14.25 5.2
      vertex -25.25 -15.25 5.2
      vertex 25.25 -15.25 5.2
    endloop
  endfacet
  facet normal 0 0 1
    outer loop
      vertex -25.25 -15.25 5.2
      vertex -24.25 -14.25 5.2
      vertex -25.25 -9.25 5.2
    endloop
  endfacet
  facet normal -0 0 1
    outer loop
      vertex -25.25 9.25 2
      vertex -24.25 -9.25 2
      vertex -24.25 9.25 2
    endloop
  endfacet
  facet normal 0 0 1
    outer loop
      vertex -24.25 -9.25 2
      vertex -25.25 9.25 2
      vertex -25.25 -9.25 2
    endloop
  endfacet
  facet normal 0 -1 0
    outer loop
      vertex -25.25 9.25 2
      vertex -24.25 9.25 5.2
      vertex -25.25 9.25 5.2
    endloop
  endfacet
  facet normal 0 -1 -0
    outer loop
      vertex -24.25 9.25 5.2
      vertex -25.25 9.25 2
      vertex -24.25 9.25 2
    endloop
  endfacet
  facet normal 0 1 -0
    outer loop
      vertex -24.25 -9.25 2
      vertex -25.25 -9.25 5.2
      vertex -24.25 -9.25 5.2
    endloop
  endfacet
  facet normal 0 1 0
    outer loop
      vertex -25.25 -9.25 5.2
      vertex -24.25 -9.25 2
      vertex -25.25 -9.25 2
    endloop
  endfacet
  facet normal -0 0 1
    outer loop
      vertex 24.25 5 2
      vertex 25.25 -5 2
      vertex 25.25 5 2
    endloop
  endfacet
  facet normal 0 0 1
    outer loop
      vertex 25.25 -5 2
      vertex 24.25 5 2
      vertex 24.25 -5 2
    endloop
  endfacet
  facet normal 0 -1 0
    outer loop
      vertex 24.25 5 2
      vertex 25.25 5 5.2
      vertex 24.25 5 5.2
    endloop
  endfacet
  facet normal 0 -1 -0
    outer loop
      vertex 25.25 5 5.2
      vertex 24.25 5 2
      vertex 25.25 5 2
    endloop
  endfacet
  facet normal 0 1 -0
    outer loop
      vertex 25.25 -5 2
      vertex 24.25 -5 5.2
      vertex 25.25 -5 5.2
    endloop
  endfacet
  facet normal 0 1 0
    outer loop
      vertex 24.25 -5 5.2
      vertex 25.25 -5 2
      vertex 24.25 -5 2
    endloop
  endfacet
endsolid OpenSCAD_Model
